<svg xmlns="http://www.w3.org/2000/svg"  viewBox="0 0 32 32" width="32px" height="32px"><path stroke="#d2eabe" fill="#d2eabe" d="M 10 4 L 10 6 L 15 6 L 15 4 L 10 4 z M 15 6 L 15 9 L 10 9 L 10 6 L 8 6 L 8 9 L 7 9 L 7 11 L 17 11 L 17 9 L 17 6 L 15 6 z M 7 11 L 5 11 L 5 13 L 7 13 L 7 11 z M 5 13 L 3 13 L 3 19 L 5 19 L 5 13 z M 5 19 L 5 24 L 7 24 L 7 19 L 5 19 z M 7 24 L 7 28 L 11 28 L 11 26 L 9 26 L 9 24 L 7 24 z M 11 26 L 22 26 L 22 22 L 20 22 L 20 24 L 13 24 L 13 21 L 11 21 L 11 26 z M 22 26 L 22 28 L 26 28 L 26 22 L 24 22 L 24 26 L 22 26 z M 26 22 L 29 22 L 29 20 L 26 20 L 26 22 z M 29 20 L 31 20 L 31 14 L 28 14 L 28 12 L 26 12 L 26 16 L 29 16 L 29 20 z M 26 16 L 24 16 L 24 18 L 26 18 L 26 16 z M 26 12 L 26 10 L 23 10 L 23 12 L 26 12 z M 3 13 L 3 11 L 0 11 L 0 13 L 3 13 z M 21 4 L 21 7 L 23 7 L 23 4 L 21 4 z M 21 7 L 19 7 L 19 13 L 21 13 L 21 7 z"/></svg>